<svg id="katman_1" data-name="katman 1" xmlns="http://www.w3.org/2000/svg" viewBox="0 0 511.96 512"><defs><style>.cls-1{fill:#ee7114;}</style></defs><title>home</title><path class="cls-1" d="M246,370a10,10,0,1,0,10-10A10,10,0,0,0,246,370Z" transform="translate(0)"/><path class="cls-1" d="M284.74,347.34a10,10,0,0,0,5.15-18.57,65.76,65.76,0,0,0-67.83,0,10,10,0,1,0,10.3,17.14,45.83,45.83,0,0,1,47.25,0A10,10,0,0,0,284.74,347.34Z" transform="translate(0)"/><path class="cls-1" d="M332.62,285a10,10,0,0,0,11.08-16.65l-6.7-4.47a145.58,145.58,0,0,0-162,0l-6.73,4.48A10,10,0,0,0,179.34,285l6.74-4.49a125.65,125.65,0,0,1,139.83,0Z" transform="translate(0)"/><path class="cls-1" d="M305.93,315.32A10,10,0,1,0,317,298.69l-2.24-1.5a105.78,105.78,0,0,0-117.64,0l-2.23,1.49A10,10,0,0,0,206,315.32l2.22-1.49a85.84,85.84,0,0,1,95.44,0Z" transform="translate(0)"/><path class="cls-1" d="M66,50V179.91L10,237.54A35,35,0,0,0,60,286.46l6-6.1V325a10,10,0,0,0,20,0V259.91L256,86.07,426,259.91V452H86V405a10,10,0,0,0-20,0v47H56a30,30,0,0,0,0,60H456a30,30,0,0,0,0-60H446V280.36l6,6.1A35,35,0,0,0,502,237.56L281,10.23a35.74,35.74,0,0,0-50.08,0L146,97.63V50a10,10,0,0,0-10-10H76A10,10,0,0,0,66,50ZM466,482a10,10,0,0,1-10,10H56a10,10,0,0,1,0-20H456A10,10,0,0,1,466,482ZM245.25,24.21a15.78,15.78,0,0,1,21.44,0l221,227.33a15,15,0,1,1-21.46,21L263.13,64.78a10,10,0,0,0-14.3,0L45.71,272.48a15,15,0,1,1-21.44-21C28.06,247.61,242.07,27.52,245.25,24.21ZM126,60v58.2L86,159.34V60Z" transform="translate(0)"/><path class="cls-1" d="M76,375a10,10,0,1,0-10-10A10,10,0,0,0,76,375Z" transform="translate(0)"/></svg>