<svg id="Capa_1" data-name="Capa 1" xmlns="http://www.w3.org/2000/svg" viewBox="0 0 303.62 293.54"><defs><style>.cls-1{fill:#ee7114;}</style></defs><title>is</title><path class="cls-1" d="M151.81,253.48a15.51,15.51,0,0,0-12.21-2.88,15.5,15.5,0,0,0-17.41-12.81,16.33,16.33,0,0,0-3,.7A15.49,15.49,0,0,0,100,227.93a14.41,14.41,0,0,0-1.6.56,15.5,15.5,0,0,0-25.53-6.18L56.6,221.22l10-81,17.88,1.19h.3a4.44,4.44,0,0,0,4-2.42l6.7-13.07a7.91,7.91,0,0,1,9.11-4l9.94,2.75a4.45,4.45,0,0,0,2.37-8.57l-10-2.69a16.83,16.83,0,0,0-19.39,8.51l-5.37,10.49-14.41-1,.34-2.78a16.26,16.26,0,0,0-14.15-18.12l-34.25-4.22a4.45,4.45,0,0,0-1.09,8.83l34.26,4.22a7.35,7.35,0,0,1,6.41,8.2h0L47.45,223.08a7.38,7.38,0,0,1-8.21,6.41L5,225.27a4.45,4.45,0,0,0-1.32,8.8l.23,0,34.26,4.22a16.65,16.65,0,0,0,2,.12A16.3,16.3,0,0,0,54.39,230l12.18.81a15.52,15.52,0,0,0,15.9,22.44h.14a.33.33,0,0,0,0,.14A15.5,15.5,0,0,0,98,266.79a15.94,15.94,0,0,0,2.29-.17,15.45,15.45,0,0,0,15.35,13.53,15.67,15.67,0,0,0,2.27-.18v.15a15.5,15.5,0,0,0,27.72,7.24l9.2-12.14A15.52,15.52,0,0,0,151.81,253.48Zm-70.56-9a6.62,6.62,0,0,1-6.17-10.55l3.38-4.47a6.62,6.62,0,0,1,10.55,8h0l-3.39,4.47a6.55,6.55,0,0,1-4.37,2.54ZM94,256.55a6.59,6.59,0,0,1-1.29-9.24v0l3.39-4.47h0l3-3.95a6.63,6.63,0,0,1,5.28-2.62,6.51,6.51,0,0,1,4,1.34,6.61,6.61,0,0,1,1.28,9.26h0l-6.37,8.43A6.62,6.62,0,0,1,94,256.56l0,0Zm17.63,13.36a6.64,6.64,0,0,1-1.28-9.27h0l6.41-8.43h0l2.32-3.06a6.62,6.62,0,0,1,10.55,8l-8.7,11.48h0a6.63,6.63,0,0,1-9.29,1.29h0Zm36.1-.07L138.53,282A6.62,6.62,0,1,1,128,274l8.69-11.48h0l.5-.66a6.62,6.62,0,0,1,10.54,8h0Z" transform="translate(0.12 0.03)"/><path class="cls-1" d="M303.47,229.14a4.46,4.46,0,0,0-5-3.87h0l-34.25,4.22a7.37,7.37,0,0,1-8.21-6.4h0l-.35-2.85h0l-.08-.66-11.34-92a7.37,7.37,0,0,1,6.4-8.21h0l34.26-4.22a4.45,4.45,0,0,0-1.09-8.83l-34.25,4.22a16.3,16.3,0,0,0-14.27,16.56l-8.55,1-26.75-15a21.26,21.26,0,0,0-12.46-2.7h0l-8,.74a4.45,4.45,0,0,0,.82,8.86l8.07-.75a12.44,12.44,0,0,1,7.24,1.54l27.71,15.61a4.42,4.42,0,0,0,3,.71l10-1.24,7.42,59.78,2.55,20.67h-16a4.41,4.41,0,0,0-2.9,1.09l-1.24,1L186,183.79c9.18-2.64,17.93-9,26.11-19.07a4.45,4.45,0,0,0-6.64-5.92,3.61,3.61,0,0,0-.25.3c-9.15,11.24-18.77,17-28.59,17.19-14.3.27-24.82-11.6-24.91-11.71a4.5,4.5,0,0,0-3.5-1.54,4.44,4.44,0,0,0-3.39,1.74l-12,15.54a23.13,23.13,0,0,1-26.67,7.59l-1.28-.48a3,3,0,0,1-1.69-3.89,2.64,2.64,0,0,1,.18-.38l31.17-53.65a12.42,12.42,0,0,1,9.6-6.13l18.45-1.71a4.44,4.44,0,1,0-.82-8.85l-18.45,1.71a21.33,21.33,0,0,0-16.47,10.52L95.67,178.7a11.86,11.86,0,0,0,6.08,17l1.28.48a32,32,0,0,0,36.86-10.49l8.86-11.6c4.78,4.12,13.69,10.21,25.06,11l58.06,50a5.18,5.18,0,0,1,.54,7.28L230.15,245a7.92,7.92,0,0,1-11.14.82,3.88,3.88,0,0,0-.58-.42l-15.07-13a4.45,4.45,0,1,0-5.93,6.63l.12.11,12.25,10.56-5.59,6.48a7.88,7.88,0,0,1-11.11.85l0,0L193,257l-14-12.07a4.45,4.45,0,0,0-5.81,6.73l10.7,9.23-5.59,6.56a7.88,7.88,0,0,1-6.91,2.69,4.45,4.45,0,1,0-1.49,8.77,4.1,4.1,0,0,0,.49.06,16.95,16.95,0,0,0,14.72-5.72l6-7a16.46,16.46,0,0,0,5.23,1.51A16.75,16.75,0,0,0,211,262l6-7A16.82,16.82,0,0,0,237,250.82l2.26-2.63a14,14,0,0,0-1.42-19.75l0,0-3.65-3.15h13.34a16.29,16.29,0,0,0,15.9,13.15,16.65,16.65,0,0,0,2-.12l34.26-4.22A4.45,4.45,0,0,0,303.47,229.14Z" transform="translate(0.12 0.03)"/><path class="cls-1" d="M144.87,89.88A6.88,6.88,0,1,0,151.75,83,6.88,6.88,0,0,0,144.87,89.88Z" transform="translate(0.12 0.03)"/><path class="cls-1" d="M171.53,74.3a6.88,6.88,0,0,0,3.54-12.78,45.25,45.25,0,0,0-46.64,0,6.88,6.88,0,0,0,7.07,11.8,31.55,31.55,0,0,1,32.5,0A6.88,6.88,0,0,0,171.53,74.3Z" transform="translate(0.12 0.03)"/><path class="cls-1" d="M204.45,31.41A6.87,6.87,0,0,0,212.07,20h0l-4.61-3.07a100.1,100.1,0,0,0-111.4,0L91.43,20a6.87,6.87,0,1,0,7.39,11.59l.23-.16,4.63-3.08a86.4,86.4,0,0,1,96.15,0Z" transform="translate(0.12 0.03)"/><path class="cls-1" d="M186.09,52.28a6.88,6.88,0,0,0,7.66-11.44h0l-1.55-1a72.76,72.76,0,0,0-80.89,0l-1.53,1a6.88,6.88,0,0,0,7.64,11.44l1.52-1a59,59,0,0,1,65.63,0Z" transform="translate(0.12 0.03)"/></svg>