<svg id="Layer_1" data-name="Layer 1" xmlns="http://www.w3.org/2000/svg" viewBox="0 0 391.93 512"><defs><style>.cls-1{fill:#4ad295;}</style></defs><title>register</title><path class="cls-1" d="M157,453.38H129.67a10,10,0,1,1,0-20H157a10,10,0,0,1,0,20Z" transform="translate(-60.04 0)"/><path class="cls-1" d="M232.11,453.38H204.78a10,10,0,1,1,0-20h27.33a10,10,0,0,1,0,20Z" transform="translate(-60.04 0)"/><path class="cls-1" d="M307.22,453.38H279.89a10,10,0,0,1,0-20h27.33a10,10,0,0,1,0,20Z" transform="translate(-60.04 0)"/><path class="cls-1" d="M382.33,453.38H355a10,10,0,0,1,0-20h27.33a10,10,0,1,1,0,20Z" transform="translate(-60.04 0)"/><path class="cls-1" d="M255.82,512a10,10,0,1,1,9.8-8.05A10.11,10.11,0,0,1,255.82,512Z" transform="translate(-60.04 0)"/><path class="cls-1" d="M442,512H301.21a10,10,0,0,1,0-20H432V394.76H80V492H210.79a10,10,0,0,1,0,20H70a10,10,0,0,1-10-10V384.76a10,10,0,0,1,10-10H442a10,10,0,0,1,10,10V502A10,10,0,0,1,442,512Z" transform="translate(-60.04 0)"/><path class="cls-1" d="M314.62,173.43a96.64,96.64,0,1,0-117.24,0A84.84,84.84,0,0,0,117.67,258V317.6a10,10,0,0,0,10,10H384.33a10,10,0,0,0,10-10V258a84.84,84.84,0,0,0-79.71-84.59ZM179.36,96.64A76.64,76.64,0,1,1,256,173.28a76.73,76.73,0,0,1-76.64-76.64Zm195,211H137.67V258a64.81,64.81,0,0,1,64.73-64.74H309.6A64.81,64.81,0,0,1,374.33,258V307.6Z" transform="translate(-60.04 0)"/></svg>